<svg xmlns="http://www.w3.org/2000/svg" viewBox="0 0 170.21 101.34">
	<g fill="#fff">
		<path d="M28.57,61.63a4.39,4.39,0,0,0-1.28-.87,3.9,3.9,0,0,0-1.57-.32,3.7,3.7,0,0,0-1.53.31A3.81,3.81,0,0,0,23,61.6a4.4,4.4,0,0,0-.85,1.28,3.91,3.91,0,0,0-.32,1.55,3.94,3.94,0,0,0,1.15,2.79,4.54,4.54,0,0,0,1.28.85,3.67,3.67,0,0,0,1.54.32,3.94,3.94,0,0,0,1.53-.3,3.79,3.79,0,0,0,1.23-.86A4.24,4.24,0,0,0,29.36,66a3.55,3.55,0,0,0,.32-1.5,4.27,4.27,0,0,0-.28-1.56A3.93,3.93,0,0,0,28.57,61.63Z" />
		<path d="M118.65,61.63a4.34,4.34,0,0,0-1.27-.87,4,4,0,0,0-1.58-.32,3.77,3.77,0,0,0-1.53.31,3.92,3.92,0,0,0-1.24.85,4.18,4.18,0,0,0-.84,1.28,3.75,3.75,0,0,0-.33,1.55,4,4,0,0,0,.31,1.54,3.85,3.85,0,0,0,.85,1.25,4.35,4.35,0,0,0,1.27.85,3.7,3.7,0,0,0,1.54.32,3.9,3.9,0,0,0,1.53-.3,3.84,3.84,0,0,0,1.24-.86,4.21,4.21,0,0,0,.84-1.26,3.56,3.56,0,0,0,.33-1.5,4.28,4.28,0,0,0-.29-1.56A3.77,3.77,0,0,0,118.65,61.63Z" />
		<path d="M0,0V101.34H170.21V0ZM35.43,68.09A9.3,9.3,0,0,1,33.6,71a8.52,8.52,0,0,1-2.76,2,8.34,8.34,0,0,1-3.46.72A7.24,7.24,0,0,1,22,71.47V81.91H15.81V55.66H22V57.6a6.46,6.46,0,0,1,5.36-2.49,8.33,8.33,0,0,1,3.48.74,9,9,0,0,1,2.8,2,9.23,9.23,0,0,1,1.84,3,10.08,10.08,0,0,1,.66,3.66A9.82,9.82,0,0,1,35.43,68.09Zm15-6.64a5.84,5.84,0,0,0-2.65-.62,3.94,3.94,0,0,0-3.2,1.28,5.67,5.67,0,0,0-1.07,3.74v7.51H37.4V55.85h6.14v2.87A7,7,0,0,1,46,56.31a6.4,6.4,0,0,1,3.32-.84h.53a3.37,3.37,0,0,1,.66.07Zm7.68,11.72H52V55.66h6.14Zm.1-22.89a3.66,3.66,0,0,1-.74,1.11,3.51,3.51,0,0,1-1.11.75,3.16,3.16,0,0,1-1.34.28,3.22,3.22,0,0,1-1.34-.28,3.58,3.58,0,0,1-1.1-.75,3.66,3.66,0,0,1-.74-1.11,3.37,3.37,0,0,1,0-2.69,3.43,3.43,0,0,1,.74-1.11,3.8,3.8,0,0,1,1.1-.76,3.38,3.38,0,0,1,1.34-.27,3.31,3.31,0,0,1,1.34.27,3.71,3.71,0,0,1,1.11.76,3.43,3.43,0,0,1,.74,1.11,3.49,3.49,0,0,1,0,2.69Zm21.1,22.89H73.2V64.33a9.28,9.28,0,0,0-.19-2.1A2.57,2.57,0,0,0,72.35,61a2.35,2.35,0,0,0-.91-.58,3.55,3.55,0,0,0-1.09-.17,3,3,0,0,0-2.39.94,3.88,3.88,0,0,0-.83,2.68v9.35H61V55.66h6.14v2.22a6.7,6.7,0,0,1,2.54-2.07,8,8,0,0,1,3-.53,7.49,7.49,0,0,1,3.14.6,6.26,6.26,0,0,1,2.22,1.69,4.81,4.81,0,0,1,1,2A10.44,10.44,0,0,1,79.34,62ZM94.6,61.33a5.65,5.65,0,0,0-3.22-1.1,4.48,4.48,0,0,0-1.65.31,4.42,4.42,0,0,0-1.34.87,4,4,0,0,0-.89,1.33,4.37,4.37,0,0,0-.33,1.73,4.25,4.25,0,0,0,.33,1.69,3.92,3.92,0,0,0,2.22,2.2,4.58,4.58,0,0,0,1.66.31,5,5,0,0,0,3.22-1.2v5.26a10.78,10.78,0,0,1-4.31,1,10.17,10.17,0,0,1-3.61-.65,9.1,9.1,0,0,1-3-1.86,9.21,9.21,0,0,1-2.08-2.9,8.92,8.92,0,0,1-.78-3.77,9.62,9.62,0,0,1,.74-3.81,9.14,9.14,0,0,1,2-3,9.26,9.26,0,0,1,3.07-1.95,10.44,10.44,0,0,1,3.81-.7,9,9,0,0,1,4.14,1Zm8.8,11.84H97.26V55.66h6.14Zm.1-22.89a3.48,3.48,0,0,1-.74,1.11,3.58,3.58,0,0,1-1.1.75,3.22,3.22,0,0,1-1.34.28A3.19,3.19,0,0,1,99,52.14a3.51,3.51,0,0,1-1.11-.75,3.66,3.66,0,0,1-.74-1.11,3.49,3.49,0,0,1,0-2.69,3.43,3.43,0,0,1,.74-1.11A3.71,3.71,0,0,1,99,45.72a3.34,3.34,0,0,1,1.34-.27,3.38,3.38,0,0,1,1.34.27,3.8,3.8,0,0,1,1.1.76,3.27,3.27,0,0,1,.74,1.11,3.37,3.37,0,0,1,0,2.69Zm22,17.81A9.33,9.33,0,0,1,123.68,71a8.52,8.52,0,0,1-2.76,2,8.31,8.31,0,0,1-3.46.72A7.24,7.24,0,0,1,112,71.47V81.91h-6.14V55.66H112V57.6a6.48,6.48,0,0,1,5.36-2.49,8.26,8.26,0,0,1,3.48.74,8.87,8.87,0,0,1,2.8,2,9.25,9.25,0,0,1,1.85,3,10.08,10.08,0,0,1,.66,3.66A9.82,9.82,0,0,1,125.52,68.09Zm8.25,5.08h-6.13V44.84h6.13Zm20.63-7.71H141.47c0,2.66,1.25,4,3.73,4a3.31,3.31,0,0,0,3-1.64h5.94q-1.8,6-9,6a11.89,11.89,0,0,1-4-.66,9.06,9.06,0,0,1-3.13-1.9,8.45,8.45,0,0,1-2-2.93,9.79,9.79,0,0,1-.71-3.83,10.93,10.93,0,0,1,.67-3.94,8.22,8.22,0,0,1,5-4.88,11.3,11.3,0,0,1,4-.67,11,11,0,0,1,4,.67,7.92,7.92,0,0,1,3,1.93,8.41,8.41,0,0,1,1.86,3.09,12.22,12.22,0,0,1,.65,4.11Z" />
		<path d="M147.41,59.79a3.89,3.89,0,0,0-4.63,0,3.4,3.4,0,0,0-1.14,2.11h7A3.71,3.71,0,0,0,147.41,59.79Z" />
	</g>
</svg>
